<svg xmlns="http://www.w3.org/2000/svg" viewBox="0 0 600 200">
  <path fill="#e30613" d="M149.8 137.1c-1.2 3.2-2.4 6.3-3.7 9.5-1.3 3.2-2.6 6.3-3.9 9.5h-14.6l18.5-43.3h15.1l18.5 43.3h-14.6c-1.3-3.2-2.6-6.3-3.9-9.5-1.3-3.2-2.5-6.3-3.7-9.5h-7.7zm-1.9-8.9h11.5l-5.8-14.1-5.7 14.1z"/>
  <path fill="#e30613" d="M186.8 112.8h13.4v30.4h19.2v12.9h-32.6v-43.3z"/>
  <path fill="#e30613" d="M226.2 112.8h13.4v17.2h16.5v-17.2h13.4v43.3h-13.4v-17.2h-16.5v17.2h-13.4v-43.3z"/>
  <path fill="#e30613" d="M278.6 112.8h13.4v30.4h19.2v12.9h-32.6v-43.3z"/>
  <path fill="#e30613" d="M317.9 112.8h13.4v43.3h-13.4v-43.3z"/>
  <path fill="#e30613" d="M339.5 112.8h13.4v17.2h16.5v-17.2h13.4v43.3h-13.4v-17.2h-16.5v17.2h-13.4v-43.3z"/>
  <path fill="#e30613" d="M392 112.8h32.6v12.9h-19.2v3.8h17.8v11.5h-17.8v4.2h19.2v12.9H392v-45.3z"/>
  <path fill="#e30613" d="M432.5 112.8h13.4v30.4h19.2v12.9h-32.6v-43.3z"/>
  <path fill="#e30613" d="M471.9 112.8h13.4v43.3h-13.4v-43.3z"/>
  <path fill="#e30613" d="M493.5 112.8h14.6l9.8 16.7 9.8-16.7h14.6v43.3h-13.4v-21.1l-11 16.7-11-16.7v21.1h-13.4v-43.3z"/>
  <path fill="#e30613" d="M551.5 156.1c-2.6 0-4.8-0.9-6.6-2.7-1.8-1.8-2.7-4-2.7-6.6 0-2.6 0.9-4.8 2.7-6.6 1.8-1.8 4-2.7 6.6-2.7 2.6 0 4.8 0.9 6.6 2.7 1.8 1.8 2.7 4 2.7 6.6 0 2.6-0.9 4.8-2.7 6.6-1.8 1.8-4 2.7-6.6 2.7z"/>
</svg>
